{"title":"The Pandora Machine .mp4 (2004)","uid":7109625,"size":872834746,"categoryP":"video","categoryS":"movies","magnet":"?xt=urn:btih:7e6fa5bb106685b40c190307e134b5efcf472124&amp;dn=The+Pandora+Machine+.mp4+%282004%29&amp;tr=udp%3A%2F%2Ftracker.openbittorrent.com%3A80&amp;tr=udp%3A%2F%2Fopen.demonii.com%3A1337&amp;tr=udp%3A%2F%2Ftracker.coppersurfer.tk%3A6969&amp;tr=udp%3A%2F%2Fexodus.desync.com%3A6969","seeders":1,"leechers":0,"uploader":"Frankenhedgie","files":-1,"time":1331993388,"description":"The Pandora Machine (2004) [DTV]\nStarring: Daryl Boling, Margaret Dodge, Doris Hick\nDirector: Andrew Bellware\nIMdB code: http://www.imdb.com/title/tt0415198/\nSummary: In a dystopian future in which private, for-profit police forces keep all crime at bay using technology that can detect any human, a series of murders takes place in which the killer cannot be seen; therefore, it must not be human.  But what is &quot;human?&quot;  A student-made indie effort which evokes echoes\nof Philip K. Dick.  Brought to you by Colonel Boris.\n\nGeneral\nFormat                           : MPEG-4\nFormat profile                   : Base Media\nCodec ID                         : isom\nFile size                        : 832 MiB\nDuration                         : 1h 23mn\nOverall bit rate                 : 1 392 Kbps\nMovie name                       : The Pandora Machine\nWriting application              : Lavf53.24.0\n\nVideo\nID                               : 1\nFormat                           : MPEG-4 Visual\nFormat profile                   : Advanced Simple@L5\nFormat settings, BVOP            : Yes\nFormat settings, QPel            : No\nFormat settings, GMC             : No warppoints\nFormat settings, Matrix          : Default (H.263)\nCodec ID                         : 20\nDuration                         : 1h 23mn\nBit rate mode                    : Variable\nBit rate                         : 1 258 Kbps\nMaximum bit rate                 : 9 500 Kbps\nWidth                            : 720 pixels\nHeight                           : 480 pixels\nDisplay aspect ratio             : 3:2\nFrame rate mode                  : Constant\nFrame rate                       : 29.970 fps\nStandard                         : NTSC\nColor space                      : YUV\nChroma subsampling               : 4:2:0\nBit depth                        : 8 bits\nScan type                        : Progressive\nCompression mode                 : Lossy\nBits/(Pixel*Frame)               : 0.121\nStream size                      : 752 MiB (90%)\nWriting library                  : XviD 64\n\nAudio\nID                               : 2\nFormat                           : AAC\nFormat/Info                      : Advanced Audio Codec\nFormat profile                   : LC\nCodec ID                         : 40\nDuration                         : 1h 23mn\nBit rate mode                    : Variable\nBit rate                         : 126 Kbps\nMaximum bit rate                 : 128 Kbps\nChannel(s)                       : 2 channels\nChannel positions                : Front: L R\nSampling rate                    : 44.1 KHz\nCompression mode                 : Lossy\nStream size                      : 75.1 MiB (9%)","torrent":{"xt":"urn:btih:7e6fa5bb106685b40c190307e134b5efcf472124","amp;dn":"The+Pandora+Machine+.mp4+%282004%29","amp;tr":["udp%3A%2F%2Ftracker.openbittorrent.com%3A80","udp%3A%2F%2Fopen.demonii.com%3A1337","udp%3A%2F%2Ftracker.coppersurfer.tk%3A6969","udp%3A%2F%2Fexodus.desync.com%3A6969"],"infoHash":"7e6fa5bb106685b40c190307e134b5efcf472124","infoHashBuffer":{"type":"Buffer","data":[126,111,165,187,16,102,133,180,12,25,3,7,225,52,181,239,207,71,33,36]},"announce":[],"urlList":[]}}